solid OpenSCAD_Model
  facet normal 0 0 -1
    outer loop
      vertex 35.3493 50 0
      vertex 85.3493 50 0
      vertex 50 0 0
    endloop
  endfacet
  facet normal 0 -0 -1
    outer loop
      vertex 35.3493 50 0
      vertex 50 0 0
      vertex 0 0 0
    endloop
  endfacet
  facet normal 0 -0 1
    outer loop
      vertex 50 0 10
      vertex 85.3493 50 10
      vertex 35.3493 50 10
    endloop
  endfacet
  facet normal 0 0 1
    outer loop
      vertex 0 0 10
      vertex 50 0 10
      vertex 35.3493 50 10
    endloop
  endfacet
  facet normal 0 1 0
    outer loop
      vertex 35.3493 50 0
      vertex 85.3493 50 10
      vertex 85.3493 50 0
    endloop
  endfacet
  facet normal 0 1 0
    outer loop
      vertex 35.3493 50 0
      vertex 35.3493 50 10
      vertex 85.3493 50 10
    endloop
  endfacet
  facet normal -0.816543 0.577285 0
    outer loop
      vertex 0 0 0
      vertex 35.3493 50 10
      vertex 35.3493 50 0
    endloop
  endfacet
  facet normal -0.816543 0.577285 0
    outer loop
      vertex 0 0 0
      vertex 0 0 10
      vertex 35.3493 50 10
    endloop
  endfacet
  facet normal 0 -1 0
    outer loop
      vertex 50 0 0
      vertex 0 0 10
      vertex 0 0 0
    endloop
  endfacet
  facet normal 0 -1 0
    outer loop
      vertex 50 0 0
      vertex 50 0 10
      vertex 0 0 10
    endloop
  endfacet
  facet normal 0.816543 -0.577285 0
    outer loop
      vertex 85.3493 50 0
      vertex 50 0 10
      vertex 50 0 0
    endloop
  endfacet
  facet normal 0.816543 -0.577285 0
    outer loop
      vertex 85.3493 50 0
      vertex 85.3493 50 10
      vertex 50 0 10
    endloop
  endfacet
endsolid OpenSCAD_Model
