solid OpenSCAD_Model
  facet normal 0 0 -1
    outer loop
      vertex 35.3493 35.3493 0
      vertex 85.3493 35.3493 0
      vertex 50 0 0
    endloop
  endfacet
  facet normal 0 -0 -1
    outer loop
      vertex 35.3493 35.3493 0
      vertex 50 0 0
      vertex 0 0 0
    endloop
  endfacet
  facet normal 0 -0 1
    outer loop
      vertex 50 0 10
      vertex 85.3493 35.3493 10
      vertex 35.3493 35.3493 10
    endloop
  endfacet
  facet normal 0 0 1
    outer loop
      vertex 0 0 10
      vertex 50 0 10
      vertex 35.3493 35.3493 10
    endloop
  endfacet
  facet normal 0 1 0
    outer loop
      vertex 35.3493 35.3493 0
      vertex 85.3493 35.3493 10
      vertex 85.3493 35.3493 0
    endloop
  endfacet
  facet normal 0 1 0
    outer loop
      vertex 35.3493 35.3493 0
      vertex 35.3493 35.3493 10
      vertex 85.3493 35.3493 10
    endloop
  endfacet
  facet normal -0.707107 0.707107 0
    outer loop
      vertex 0 0 0
      vertex 35.3493 35.3493 10
      vertex 35.3493 35.3493 0
    endloop
  endfacet
  facet normal -0.707107 0.707107 0
    outer loop
      vertex 0 0 0
      vertex 0 0 10
      vertex 35.3493 35.3493 10
    endloop
  endfacet
  facet normal 0 -1 0
    outer loop
      vertex 50 0 0
      vertex 0 0 10
      vertex 0 0 0
    endloop
  endfacet
  facet normal 0 -1 0
    outer loop
      vertex 50 0 0
      vertex 50 0 10
      vertex 0 0 10
    endloop
  endfacet
  facet normal 0.707107 -0.707107 0
    outer loop
      vertex 85.3493 35.3493 0
      vertex 50 0 10
      vertex 50 0 0
    endloop
  endfacet
  facet normal 0.707107 -0.707107 0
    outer loop
      vertex 85.3493 35.3493 0
      vertex 85.3493 35.3493 10
      vertex 50 0 10
    endloop
  endfacet
endsolid OpenSCAD_Model
